<svg width="240" height="64" viewBox="0 0 240 64" xmlns="http://www.w3.org/2000/svg" role="img" aria-label="Kisan Alert logo">
  <title>Kisan Alert</title>
  <g fill="none" stroke="currentColor" stroke-width="3.4" stroke-linecap="round" stroke-linejoin="round">
    <path d="M32 32 C26.2 28 24.8 16.4 32 9 C39.2 16.4 37.8 28 32 32 Z" transform="rotate(0 32 32)"/>
    <path d="M32 32 C26.2 28 24.8 16.4 32 9 C39.2 16.4 37.8 28 32 32 Z" transform="rotate(45 32 32)"/>
    <path d="M32 32 C26.2 28 24.8 16.4 32 9 C39.2 16.4 37.8 28 32 32 Z" transform="rotate(90 32 32)"/>
    <path d="M32 32 C26.2 28 24.8 16.4 32 9 C39.2 16.4 37.8 28 32 32 Z" transform="rotate(135 32 32)"/>
    <path d="M32 32 C26.2 28 24.8 16.4 32 9 C39.2 16.4 37.8 28 32 32 Z" transform="rotate(180 32 32)"/>
    <path d="M32 32 C26.2 28 24.8 16.4 32 9 C39.2 16.4 37.8 28 32 32 Z" transform="rotate(225 32 32)"/>
    <path d="M32 32 C26.2 28 24.8 16.4 32 9 C39.2 16.4 37.8 28 32 32 Z" transform="rotate(270 32 32)"/>
    <path d="M32 32 C26.2 28 24.8 16.4 32 9 C39.2 16.4 37.8 28 32 32 Z" transform="rotate(315 32 32)"/>
    <circle cx="32" cy="32" r="2.6"/>
  </g>
  <text x="60" y="40" font-family="Inter, 'Work Sans', system-ui, sans-serif" font-size="26" font-weight="600" fill="currentColor" stroke="none">Kisan Alert</text>
</svg>
